<?xml version="1.0" standalone="no"?><!DOCTYPE svg PUBLIC "-//W3C//DTD SVG 1.1//EN" "http://www.w3.org/Graphics/SVG/1.1/DTD/svg11.dtd"><svg class="icon" width="32px" height="32.00px" viewBox="0 0 1024 1024" version="1.1" xmlns="http://www.w3.org/2000/svg"><path fill="#ffffff" d="M778.005407 505.659078c-17.481818-17.978402-23.722399-35.843154-22.253123-63.743005 3.604076-70.860032-13.014606-134.005087-49.386085-187.674084-22.01763-32.528837-51.335562-59.19593-84.785896-77.118019-29.197114-15.643944-61.747452-24.762667-94.859904-26.657878v-0.32662l-13.828595-0.107508c-0.678836-0.005119-1.345385-0.005119-2.019102-0.005119-37.540755 0-74.828611 9.351145-107.831507 27.042859-33.438047 17.924136-62.739597 44.585086-84.733677 77.09447-36.422673 53.750908-53.05057 116.942038-49.41885 187.868622 1.524565 27.833299-4.700658 45.689859-22.221383 63.709217-46.153679 47.65879-67.185307 97.061257-64.291807 151.094757 0.072696 1.245045 0.134129 2.525925 0.19761 3.829331 0.773033 15.850769 2.067224 42.382709 27.571184 49.987106a30.540451 30.540451 0 0 0 8.834082 1.301358c15.461692 0 25.763003-11.291407 34.040092-20.366103 2.093845-2.295551 4.073016-4.463116 6.002016-6.307134 3.33889-3.232406 6.401331-7.314637 9.363431-11.26069 1.096581-1.462108 2.543331-3.390084 3.946054-5.134785 13.01563 15.297871 24.329563 35.315853 33.696066 59.642344 0.200682 0.51911 0.331739 0.936855 0.416721 1.260403-2.463468 1.493849-8.39586 2.932408-11.424512 3.667557-3.32046 0.805798-6.458669 1.566545-9.240565 2.718415-19.544947 7.888013-47.254356 35.5708-44.849249 70.157647 1.155967 16.13848 10.544995 44.767338 60.436879 55.182299 27.239445 5.692802 53.330091 8.578111 77.548051 8.578112 40.650295 0 74.940215-8.194154 101.962596-24.382806 11.808469-7.135457 24.153455-10.328955 31.149663-10.328955 7.134433 0 19.725151 3.208857 31.740445 10.359672 27.039788 16.176364 61.352233 24.37871 101.984098 24.37871 24.190315 0 50.265602-2.895548 77.488665-8.603709 49.919529-10.420081 59.259411-39.062249 60.382613-55.183323 2.488041-34.752716-24.704305-61.949158-44.807269-70.159694l-0.10546-0.043004c-2.672341-1.065865-5.690755-1.78668-8.886301-2.549474-2.881213-0.688051-9.228278-2.202377-11.730654-3.763802 0.079863-0.3215 0.206825-0.742317 0.407506-1.263475 9.51599-24.471883 20.84221-44.489865 33.726783-59.631081 1.413986 1.758011 2.871998 3.702369 3.97677 5.17574 2.949814 3.933767 5.999968 7.999616 9.356264 11.261715 1.816373 1.750844 3.75254 3.877454 5.801335 6.127953 8.331355 9.151487 18.699218 20.53914 34.213128 20.53914 2.923193 0 5.871982-0.435151 8.824867-1.310573 25.64116-7.735454 26.844225-34.352377 27.561969-50.25434 0.059385-1.303406 0.116723-2.58531 0.1843-3.814996 3.010223-54.021214-17.966116-103.406274-64.139249-150.98725z m36.30595 149.452446c-0.071672 1.331051-0.134129 2.696914-0.196586 4.08735-0.7116 15.761691-2.00272 23.086566-7.703713 24.806693-0.320476 0.095221-0.593853 0.14232-0.83549 0.14232-3.194522 0-9.455581-6.878462-13.599245-11.429631-2.260739-2.482922-4.597245-5.049802-7.026925-7.392452-1.750844-1.701697-4.136497-4.881885-6.443311-7.956613-6.955253-9.274353-14.837122-19.783512-26.870846-19.797847-5.412258 0-10.575712 2.318076-14.548387 6.528293-17.509463 18.317308-32.504264 43.330827-44.588158 74.405746-4.261411 11.104036-2.080535 19.268498 0.498632 24.163694 6.496552 12.327579 20.853472 15.755547 30.354105 18.023453 1.760059 0.419793 4.160046 0.993169 4.987345 1.310574 10.051482 4.145712 28.986194 21.280433 27.475963 42.364279-1.024909 14.726543-13.901291 24.771882-38.284096 29.861615-25.357544 5.317036-49.507927 8.01395-71.779481 8.013951-35.521654 0-65.01979-6.872318-87.700898-20.440847-14.817668-8.818724-32.453069-14.297535-46.023645-14.297535-13.46102 0-30.921337 5.496216-45.519894 14.316989-22.588958 13.532692-52.059449 20.394772-87.592365 20.394772-22.305342 0-46.477227-2.688723-71.849105-7.990401-24.379733-5.089734-37.275569-15.144288-38.330171-29.85752-1.411938-20.298527 16.874654-38.096725 27.508727-42.358136l0.200681-0.081911c0.791463-0.326619 3.30715-0.936855 5.145024-1.383269 9.404387-2.28224 23.616939-5.729662 30.019294-17.971235 2.55357-4.883933 4.699634-13.029965 0.423888-24.083831-11.869903-30.828163-26.85856-55.867279-44.534916-74.407794-5.129665-5.395876-10.761035-6.527269-14.582175-6.527269-12.01939 0-19.886925 10.483562-26.827843 19.732318-2.310909 3.080871-4.701681 6.265154-6.386996 7.898251-2.554594 2.439919-4.954581 5.07028-7.27573 7.614635-4.096565 4.490761-10.288 11.278097-13.446686 11.278097-0.281568 0-0.51911-0.033788-0.820132-0.124914-5.678468-1.693506-6.977778-8.972307-7.742621-24.645943a429.19225 429.19225 0 0 0-0.208872-4.024894c-2.452205-45.798391 16.023805-88.371542 56.465228-130.129681 23.015918-23.671205 32.00256-48.986769 30.052058-84.597501-3.312269-64.686003 11.713248-122.137233 44.664949-170.764619 38.471467-56.864543 98.056474-90.115219 164.128818-91.821012h8.233062c68.209193 0 130.000672 33.494361 169.533908 91.902923 32.901531 48.548547 47.915785 105.954725 44.629114 170.601821-1.87883 35.679332 7.125218 60.985682 30.097109 84.60774 40.437327 41.671109 58.853952 84.19921 56.300382 130.029341z"  /></svg>