<?xml version="1.0" standalone="no"?><!DOCTYPE svg PUBLIC "-//W3C//DTD SVG 1.1//EN" "http://www.w3.org/Graphics/SVG/1.1/DTD/svg11.dtd"><svg class="icon" width="32px" height="32.00px" viewBox="0 0 1024 1024" version="1.1" xmlns="http://www.w3.org/2000/svg"><path fill="#ffffff" d="M858.954013 601.113597c0-98.723465-95.30153-178.753173-212.860992-178.753173-117.558439 0-212.859969 80.028685-212.859969 178.753173s95.30153 178.753173 212.859969 178.753173c33.31271 0 64.835657-6.42841 92.906993-17.884322l65.204048 33.966603-19.462261-59.207473C830.173526 703.957917 858.954013 655.361105 858.954013 601.113597L858.954013 601.113597zM571.192124 562.326199c-15.288195 0-27.682479-12.208043-27.682479-27.253714 0-15.050788 12.395308-27.253714 27.682479-27.253714 15.292288 0 27.681456 12.20395 27.681456 27.253714C598.874603 550.118156 586.484412 562.326199 571.192124 562.326199L571.192124 562.326199zM721.035874 562.326199c-15.292288 0-27.685549-12.208043-27.685549-27.253714 0-15.050788 12.394285-27.253714 27.685549-27.253714 15.288195 0 27.678386 12.20395 27.678386 27.253714C748.715283 550.118156 736.324068 562.326199 721.035874 562.326199L721.035874 562.326199zM646.091998 406.811286c4.41659 0 8.797363 0.116657 13.146415 0.327458-17.689894-101.32164-120.971166-179.087794-245.753123-179.087794-137.208988 0-248.440325 94.027513-248.440325 210.010061 0 66.302055 36.362162 125.420501 93.136214 163.909094l-23.667026 80.787978 87.703481-49.316196c28.251438 9.437953 59.043744 14.629185 91.267657 14.629185 3.546779 0 7.071046-0.081864 10.584056-0.202615-4.353145-14.976086-6.678096-30.625508-6.678096-46.742581C417.392272 493.806639 519.783267 406.811286 646.091998 406.811286L646.091998 406.811286zM512.205685 336.922543c17.538445 0 31.763424 14.130835 31.763424 31.568996 0 17.437138-14.223956 31.572066-31.763424 31.572066-17.546631 0-31.766494-14.137998-31.766494-31.572066C480.43919 351.053378 494.659053 336.922543 512.205685 336.922543L512.205685 336.922543zM315.042209 400.062582c-17.538445 0-31.763424-14.137998-31.763424-31.572066 0-17.438161 14.224979-31.568996 31.763424-31.568996 17.545608 0 31.766494 14.130835 31.766494 31.568996C346.808704 385.928676 332.587817 400.062582 315.042209 400.062582L315.042209 400.062582zM315.042209 400.062582" /></svg>